<svg width="121" height="31" viewBox="0 0 121 31" fill="none" xmlns="http://www.w3.org/2000/svg">
<path d="M10.9414 29.6484C10.8633 27.8255 10.7982 25.9375 10.7461 23.9844C10.694 22.0312 10.6029 20.0651 10.4727 18.0859C10.3685 16.0807 10.1992 14.1016 9.96484 12.1484C9.75651 10.1693 9.48307 8.26823 9.14453 6.44531C9.04036 6.02865 8.94922 5.76823 8.87109 5.66406C8.79297 5.5599 8.59766 5.50781 8.28516 5.50781C7.66016 5.50781 7.0612 5.61198 6.48828 5.82031C5.91536 6.0026 5.32943 6.21094 4.73047 6.44531C4.15755 6.67969 3.58464 6.90104 3.01172 7.10938C2.4388 7.29167 1.82682 7.38281 1.17578 7.38281C0.83724 7.38281 0.563802 7.33073 0.355469 7.22656C0.147135 7.09635 0.0429688 6.83594 0.0429688 6.44531C0.0429688 6.26302 0.0559896 6.08073 0.0820312 5.89844C0.134115 5.71615 0.290365 5.61198 0.550781 5.58594L8.20703 3.71094C8.15495 3.13802 8.19401 2.77344 8.32422 2.61719C8.48047 2.4349 8.72786 2.34375 9.06641 2.34375C9.50911 2.34375 9.88672 2.4349 10.1992 2.61719C10.5117 2.77344 10.9023 2.85156 11.3711 2.85156C12.543 2.85156 13.7018 2.76042 14.8477 2.57812C15.9935 2.36979 17.1393 2.14844 18.2852 1.91406C19.431 1.65365 20.5638 1.43229 21.6836 1.25C22.8294 1.04167 23.9753 0.9375 25.1211 0.9375V1.32812C25.1211 1.51042 25.1081 1.70573 25.082 1.91406C25.082 2.1224 25.0299 2.31771 24.9258 2.5C24.8216 2.68229 24.6914 2.78646 24.5352 2.8125C24.2487 2.83854 23.819 2.89062 23.2461 2.96875C22.6992 3.02083 22.0612 3.09896 21.332 3.20312C20.6289 3.28125 19.8867 3.3724 19.1055 3.47656C18.3242 3.55469 17.569 3.64583 16.8398 3.75C16.1107 3.82812 15.4596 3.91927 14.8867 4.02344C14.3398 4.10156 13.9232 4.15365 13.6367 4.17969C13.4023 4.23177 13.1029 4.3099 12.7383 4.41406C12.3997 4.49219 12.0612 4.58333 11.7227 4.6875C11.3841 4.76562 11.0846 4.84375 10.8242 4.92188C10.5898 5 10.4727 5.05208 10.4727 5.07812V5.58594L12.7383 29.1406V29.6484C12.7122 29.7005 12.6471 29.7656 12.543 29.8438C12.4648 29.8958 12.3477 29.9479 12.1914 30C12.0352 30.026 11.8529 30.026 11.6445 30C11.4362 29.9479 11.2018 29.8307 10.9414 29.6484Z" fill="black"/>
<path d="M23.4492 29.5312C23.4232 29.0365 23.3581 28.2552 23.2539 27.1875C23.1497 26.0938 23.0326 24.8568 22.9023 23.4766C22.7982 22.0964 22.668 20.651 22.5117 19.1406C22.3815 17.6302 22.2513 16.1979 22.1211 14.8438C22.0169 13.4635 21.9128 12.2266 21.8086 11.1328C21.7305 10.0391 21.6784 9.24479 21.6523 8.75V8.47656C21.6523 8.34635 21.6393 8.20312 21.6133 8.04688C21.6133 7.86458 21.6133 7.69531 21.6133 7.53906V6.83594C21.6133 6.67969 21.6133 6.52344 21.6133 6.36719C21.6393 6.1849 21.6523 6.02865 21.6523 5.89844V5.58594C21.7044 5.32552 21.8216 5.16927 22.0039 5.11719C22.1862 5.0651 22.3685 5.03906 22.5508 5.03906C22.6029 5.03906 22.681 5.05208 22.7852 5.07812C22.8893 5.07812 22.9674 5.07812 23.0195 5.07812L24.8164 26.8359C24.8424 26.9141 24.8685 27.0312 24.8945 27.1875C24.9466 27.3438 24.9987 27.526 25.0508 27.7344C25.1289 27.9427 25.181 28.125 25.207 28.2812C25.2331 28.4375 25.2591 28.5547 25.2852 28.6328V28.8672C25.2852 29.0234 25.2331 29.1667 25.1289 29.2969C25.0247 29.4271 24.8945 29.5443 24.7383 29.6484C24.582 29.7526 24.4258 29.8438 24.2695 29.9219C24.1393 29.974 24.0221 30 23.918 30C23.8398 30 23.7357 29.9479 23.6055 29.8438C23.5013 29.7135 23.4492 29.6094 23.4492 29.5312Z" fill="black"/>
<path d="M29.7461 29.5312C29.7201 29.1927 29.668 28.6458 29.5898 27.8906C29.5378 27.1094 29.4857 26.25 29.4336 25.3125C29.3815 24.349 29.3164 23.3464 29.2383 22.3047C29.1862 21.237 29.1341 20.2344 29.082 19.2969C29.0299 18.3594 28.9779 17.513 28.9258 16.7578C28.8737 15.9766 28.8477 15.4167 28.8477 15.0781C28.8477 15 28.8346 14.7656 28.8086 14.375C28.8086 13.9844 28.7956 13.5417 28.7695 13.0469C28.7695 12.526 28.7695 12.0312 28.7695 11.5625V9.375C28.7695 8.90625 28.7695 8.42448 28.7695 7.92969C28.7956 7.40885 28.8086 6.92708 28.8086 6.48438C28.8346 6.04167 28.8477 5.74219 28.8477 5.58594C28.9518 5.3776 29.043 5.2474 29.1211 5.19531C29.2253 5.11719 29.3424 5.07812 29.4727 5.07812H29.7461L31.1133 22.5781L37.4414 11.9141C37.5716 11.6797 37.7279 11.4583 37.9102 11.25C38.0924 11.0417 38.3138 10.9375 38.5742 10.9375C38.7565 10.9375 38.9258 11.0156 39.082 11.1719C39.2383 11.3281 39.3164 11.4974 39.3164 11.6797C39.3164 11.7057 39.3034 11.7448 39.2773 11.7969C39.2773 11.849 39.2773 11.888 39.2773 11.9141L32.4414 23.6719C32.5456 23.6719 32.7409 23.6849 33.0273 23.7109C33.3138 23.7109 33.5091 23.7109 33.6133 23.7109C34.7331 23.7109 35.8529 23.6589 36.9727 23.5547C38.1185 23.4505 39.2513 23.3333 40.3711 23.2031C41.5169 23.0469 42.6497 22.9167 43.7695 22.8125C44.8893 22.7083 46.0091 22.6562 47.1289 22.6562C47.1289 23.0469 47.0508 23.4115 46.8945 23.75C46.7383 24.0885 46.4518 24.362 46.0352 24.5703C45.9049 24.5443 45.6445 24.5312 45.2539 24.5312H42.7539C42.3633 24.5312 42.0898 24.5443 41.9336 24.5703C41.4128 24.5964 40.7878 24.6615 40.0586 24.7656C39.3555 24.8438 38.6133 24.9349 37.832 25.0391C37.0768 25.1432 36.3216 25.2474 35.5664 25.3516C34.8112 25.4297 34.1341 25.5078 33.5352 25.5859C32.9362 25.6641 32.4544 25.7422 32.0898 25.8203C31.7253 25.8724 31.543 25.9115 31.543 25.9375V29.1016C31.543 29.1276 31.5039 29.1797 31.4258 29.2578C31.3477 29.3359 31.2695 29.4141 31.1914 29.4922L30.8789 29.8047C30.8008 29.8828 30.7227 29.9479 30.6445 30C30.5924 30.026 30.5534 30.0391 30.5273 30.0391H30.4492C30.1367 30.0391 29.9023 29.8698 29.7461 29.5312Z" fill="black"/>
<path d="M50.457 29.5312C50.431 29.0365 50.3659 28.2552 50.2617 27.1875C50.1576 26.0938 50.0404 24.8568 49.9102 23.4766C49.806 22.0964 49.6758 20.651 49.5195 19.1406C49.3893 17.6302 49.2591 16.1979 49.1289 14.8438C49.0247 13.4635 48.9206 12.2266 48.8164 11.1328C48.7383 10.0391 48.6862 9.24479 48.6602 8.75V8.47656C48.6602 8.34635 48.6471 8.20312 48.6211 8.04688C48.6211 7.86458 48.6211 7.69531 48.6211 7.53906V6.83594C48.6211 6.67969 48.6211 6.52344 48.6211 6.36719C48.6471 6.1849 48.6602 6.02865 48.6602 5.89844V5.58594C48.7122 5.32552 48.8294 5.16927 49.0117 5.11719C49.194 5.0651 49.3763 5.03906 49.5586 5.03906C49.6107 5.03906 49.6888 5.05208 49.793 5.07812C49.8971 5.07812 49.9753 5.07812 50.0273 5.07812L51.8242 26.8359C51.8503 26.9141 51.8763 27.0312 51.9023 27.1875C51.9544 27.3438 52.0065 27.526 52.0586 27.7344C52.1367 27.9427 52.1888 28.125 52.2148 28.2812C52.2409 28.4375 52.2669 28.5547 52.293 28.6328V28.8672C52.293 29.0234 52.2409 29.1667 52.1367 29.2969C52.0326 29.4271 51.9023 29.5443 51.7461 29.6484C51.5898 29.7526 51.4336 29.8438 51.2773 29.9219C51.1471 29.974 51.0299 30 50.9258 30C50.8477 30 50.7435 29.9479 50.6133 29.8438C50.5091 29.7135 50.457 29.6094 50.457 29.5312Z" fill="black"/>
<path d="M66.2461 29.6484C66.168 27.8255 66.1029 25.9375 66.0508 23.9844C65.9987 22.0312 65.9076 20.0651 65.7773 18.0859C65.6732 16.0807 65.5039 14.1016 65.2695 12.1484C65.0612 10.1693 64.7878 8.26823 64.4492 6.44531C64.3451 6.02865 64.2539 5.76823 64.1758 5.66406C64.0977 5.5599 63.9023 5.50781 63.5898 5.50781C62.9648 5.50781 62.3659 5.61198 61.793 5.82031C61.2201 6.0026 60.6341 6.21094 60.0352 6.44531C59.4622 6.67969 58.8893 6.90104 58.3164 7.10938C57.7435 7.29167 57.1315 7.38281 56.4805 7.38281C56.1419 7.38281 55.8685 7.33073 55.6602 7.22656C55.4518 7.09635 55.3477 6.83594 55.3477 6.44531C55.3477 6.26302 55.3607 6.08073 55.3867 5.89844C55.4388 5.71615 55.5951 5.61198 55.8555 5.58594L63.5117 3.71094C63.4596 3.13802 63.4987 2.77344 63.6289 2.61719C63.7852 2.4349 64.0326 2.34375 64.3711 2.34375C64.8138 2.34375 65.1914 2.4349 65.5039 2.61719C65.8164 2.77344 66.207 2.85156 66.6758 2.85156C67.8477 2.85156 69.0065 2.76042 70.1523 2.57812C71.2982 2.36979 72.444 2.14844 73.5898 1.91406C74.7357 1.65365 75.8685 1.43229 76.9883 1.25C78.1341 1.04167 79.2799 0.9375 80.4258 0.9375V1.32812C80.4258 1.51042 80.4128 1.70573 80.3867 1.91406C80.3867 2.1224 80.3346 2.31771 80.2305 2.5C80.1263 2.68229 79.9961 2.78646 79.8398 2.8125C79.5534 2.83854 79.1237 2.89062 78.5508 2.96875C78.0039 3.02083 77.3659 3.09896 76.6367 3.20312C75.9336 3.28125 75.1914 3.3724 74.4102 3.47656C73.6289 3.55469 72.8737 3.64583 72.1445 3.75C71.4154 3.82812 70.7643 3.91927 70.1914 4.02344C69.6445 4.10156 69.2279 4.15365 68.9414 4.17969C68.707 4.23177 68.4076 4.3099 68.043 4.41406C67.7044 4.49219 67.3659 4.58333 67.0273 4.6875C66.6888 4.76562 66.3893 4.84375 66.1289 4.92188C65.8945 5 65.7773 5.05208 65.7773 5.07812V5.58594L68.043 29.1406V29.6484C68.0169 29.7005 67.9518 29.7656 67.8477 29.8438C67.7695 29.8958 67.6523 29.9479 67.4961 30C67.3398 30.026 67.1576 30.026 66.9492 30C66.7409 29.9479 66.5065 29.8307 66.2461 29.6484Z" fill="black"/>
<path d="M77.1523 19.1406C77.2826 18.0729 77.3997 16.9922 77.5039 15.8984C77.6341 14.7786 77.7904 13.6849 77.9727 12.6172C78.1549 11.5234 78.4023 10.4948 78.7148 9.53125C79.0534 8.54167 79.5091 7.69531 80.082 6.99219C80.681 6.26302 81.4232 5.67708 82.3086 5.23438C83.194 4.79167 84.2878 4.57031 85.5898 4.57031C86.6576 4.57031 87.5951 4.80469 88.4023 5.27344C89.2357 5.71615 89.9388 6.3151 90.5117 7.07031C91.1107 7.82552 91.5924 8.69792 91.957 9.6875C92.3216 10.651 92.6081 11.6406 92.8164 12.6562C93.0508 13.6719 93.2201 14.6875 93.3242 15.7031C93.4284 16.7188 93.4805 17.6432 93.4805 18.4766C93.4805 19.8568 93.2591 21.237 92.8164 22.6172C92.3737 23.9714 91.7357 25.2083 90.9023 26.3281C90.0951 27.4219 89.0924 28.3203 87.8945 29.0234C86.7227 29.7005 85.3815 30.0391 83.8711 30.0391C82.569 30.0391 81.4883 29.6875 80.6289 28.9844C79.7695 28.2812 79.0794 27.4089 78.5586 26.3672C78.0378 25.2995 77.6732 24.1536 77.4648 22.9297C77.2565 21.7057 77.1523 20.5859 77.1523 19.5703V19.1406ZM78.4414 19.4922C78.4414 20.4036 78.5326 21.4062 78.7148 22.5C78.8971 23.5677 79.2096 24.5573 79.6523 25.4688C80.0951 26.3802 80.694 27.1484 81.4492 27.7734C82.2305 28.3724 83.207 28.6719 84.3789 28.6719C85.7591 28.6719 86.931 28.3203 87.8945 27.6172C88.8841 26.9141 89.6914 26.0417 90.3164 25C90.9674 23.9323 91.4362 22.7734 91.7227 21.5234C92.0091 20.2734 92.1523 19.1016 92.1523 18.0078C92.1523 16.9922 92.0742 15.7943 91.918 14.4141C91.7617 13.0078 91.4362 11.6797 90.9414 10.4297C90.4727 9.17969 89.7826 8.125 88.8711 7.26562C87.9857 6.38021 86.8398 5.9375 85.4336 5.9375C84.444 5.9375 83.5846 6.17188 82.8555 6.64062C82.1263 7.10938 81.5013 7.73438 80.9805 8.51562C80.4596 9.27083 80.0299 10.1432 79.6914 11.1328C79.3789 12.0964 79.1315 13.0859 78.9492 14.1016C78.7669 15.0911 78.6367 16.0677 78.5586 17.0312C78.4805 17.9688 78.4414 18.7891 78.4414 19.4922Z" fill="black"/>
<path d="M98.2148 29.5312C98.1888 29.1927 98.1367 28.6458 98.0586 27.8906C98.0065 27.1094 97.9544 26.25 97.9023 25.3125C97.8503 24.349 97.7852 23.3464 97.707 22.3047C97.6549 21.237 97.6029 20.2344 97.5508 19.2969C97.4987 18.3594 97.4466 17.513 97.3945 16.7578C97.3424 15.9766 97.3164 15.4167 97.3164 15.0781C97.3164 15 97.3034 14.7656 97.2773 14.375C97.2773 13.9844 97.2643 13.5417 97.2383 13.0469C97.2383 12.526 97.2383 12.0312 97.2383 11.5625V9.375C97.2383 8.90625 97.2383 8.42448 97.2383 7.92969C97.2643 7.40885 97.2773 6.92708 97.2773 6.48438C97.3034 6.04167 97.3164 5.74219 97.3164 5.58594C97.4206 5.3776 97.5117 5.2474 97.5898 5.19531C97.694 5.11719 97.8112 5.07812 97.9414 5.07812H98.2148L99.582 22.5781L105.91 11.9141C106.04 11.6797 106.197 11.4583 106.379 11.25C106.561 11.0417 106.783 10.9375 107.043 10.9375C107.225 10.9375 107.395 11.0156 107.551 11.1719C107.707 11.3281 107.785 11.4974 107.785 11.6797C107.785 11.7057 107.772 11.7448 107.746 11.7969C107.746 11.849 107.746 11.888 107.746 11.9141L100.91 23.6719C101.014 23.6719 101.21 23.6849 101.496 23.7109C101.783 23.7109 101.978 23.7109 102.082 23.7109C103.202 23.7109 104.322 23.6589 105.441 23.5547C106.587 23.4505 107.72 23.3333 108.84 23.2031C109.986 23.0469 111.118 22.9167 112.238 22.8125C113.358 22.7083 114.478 22.6562 115.598 22.6562C115.598 23.0469 115.52 23.4115 115.363 23.75C115.207 24.0885 114.921 24.362 114.504 24.5703C114.374 24.5443 114.113 24.5312 113.723 24.5312H111.223C110.832 24.5312 110.559 24.5443 110.402 24.5703C109.882 24.5964 109.257 24.6615 108.527 24.7656C107.824 24.8438 107.082 24.9349 106.301 25.0391C105.546 25.1432 104.79 25.2474 104.035 25.3516C103.28 25.4297 102.603 25.5078 102.004 25.5859C101.405 25.6641 100.923 25.7422 100.559 25.8203C100.194 25.8724 100.012 25.9115 100.012 25.9375V29.1016C100.012 29.1276 99.9727 29.1797 99.8945 29.2578C99.8164 29.3359 99.7383 29.4141 99.6602 29.4922L99.3477 29.8047C99.2695 29.8828 99.1914 29.9479 99.1133 30C99.0612 30.026 99.0221 30.0391 98.9961 30.0391H98.918C98.6055 30.0391 98.3711 29.8698 98.2148 29.5312Z" fill="black"/>
<path d="M118.926 29.5312C118.9 29.0365 118.835 28.2552 118.73 27.1875C118.626 26.0938 118.509 24.8568 118.379 23.4766C118.275 22.0964 118.145 20.651 117.988 19.1406C117.858 17.6302 117.728 16.1979 117.598 14.8438C117.493 13.4635 117.389 12.2266 117.285 11.1328C117.207 10.0391 117.155 9.24479 117.129 8.75V8.47656C117.129 8.34635 117.116 8.20312 117.09 8.04688C117.09 7.86458 117.09 7.69531 117.09 7.53906V6.83594C117.09 6.67969 117.09 6.52344 117.09 6.36719C117.116 6.1849 117.129 6.02865 117.129 5.89844V5.58594C117.181 5.32552 117.298 5.16927 117.48 5.11719C117.663 5.0651 117.845 5.03906 118.027 5.03906C118.079 5.03906 118.158 5.05208 118.262 5.07812C118.366 5.07812 118.444 5.07812 118.496 5.07812L120.293 26.8359C120.319 26.9141 120.345 27.0312 120.371 27.1875C120.423 27.3438 120.475 27.526 120.527 27.7344C120.605 27.9427 120.658 28.125 120.684 28.2812C120.71 28.4375 120.736 28.5547 120.762 28.6328V28.8672C120.762 29.0234 120.71 29.1667 120.605 29.2969C120.501 29.4271 120.371 29.5443 120.215 29.6484C120.059 29.7526 119.902 29.8438 119.746 29.9219C119.616 29.974 119.499 30 119.395 30C119.316 30 119.212 29.9479 119.082 29.8438C118.978 29.7135 118.926 29.6094 118.926 29.5312Z" fill="black"/>
</svg>
