<svg width="25" height="25" viewBox="0 0 25 25" fill="none" xmlns="http://www.w3.org/2000/svg">
<path d="M21.4816 12.1121C21.485 13.432 21.1766 14.734 20.5816 15.9121C19.876 17.3238 18.7913 18.5113 17.449 19.3414C16.1067 20.1715 14.5598 20.6115 12.9816 20.6121C11.6617 20.6155 10.3597 20.3072 9.18157 19.7121L3.48157 21.6121L5.38157 15.9121C4.7865 14.734 4.47813 13.432 4.48157 12.1121C4.48218 10.5338 4.92218 8.98694 5.75229 7.64464C6.58239 6.30234 7.76982 5.21766 9.18157 4.51209C10.3597 3.91702 11.6617 3.60865 12.9816 3.61209H13.4816C15.5659 3.72708 17.5346 4.60685 19.0107 6.08295C20.4868 7.55905 21.3666 9.52774 21.4816 11.6121V12.1121Z" stroke="black" stroke-width="2" stroke-linecap="round" stroke-linejoin="round"/>
</svg>
