<svg width="25" height="25" viewBox="0 0 25 25" fill="none" xmlns="http://www.w3.org/2000/svg">
<path d="M12.9769 13.9695C13.5292 13.9695 13.9769 13.5218 13.9769 12.9695C13.9769 12.4172 13.5292 11.9695 12.9769 11.9695C12.4246 11.9695 11.9769 12.4172 11.9769 12.9695C11.9769 13.5218 12.4246 13.9695 12.9769 13.9695Z" stroke="black" stroke-width="2" stroke-linecap="round" stroke-linejoin="round"/>
<path d="M19.9769 13.9695C20.5292 13.9695 20.9769 13.5218 20.9769 12.9695C20.9769 12.4172 20.5292 11.9695 19.9769 11.9695C19.4246 11.9695 18.9769 12.4172 18.9769 12.9695C18.9769 13.5218 19.4246 13.9695 19.9769 13.9695Z" stroke="black" stroke-width="2" stroke-linecap="round" stroke-linejoin="round"/>
<path d="M5.97693 13.9695C6.52921 13.9695 6.97693 13.5218 6.97693 12.9695C6.97693 12.4172 6.52921 11.9695 5.97693 11.9695C5.42464 11.9695 4.97693 12.4172 4.97693 12.9695C4.97693 13.5218 5.42464 13.9695 5.97693 13.9695Z" stroke="black" stroke-width="2" stroke-linecap="round" stroke-linejoin="round"/>
</svg>
